<?xml version="1.0" encoding="UTF-8" standalone="no"?>
<!-- Created with Inkscape (http://www.inkscape.org/) -->
<svg id="svg14186" xmlns:rdf="http://www.w3.org/1999/02/22-rdf-syntax-ns#" xmlns="http://www.w3.org/2000/svg" height="1700" width="1200" version="1.1" xmlns:cc="http://creativecommons.org/ns#" xmlns:dc="http://purl.org/dc/elements/1.1/" viewBox="0 0 1200 1700">
 <metadata id="metadata14191">
  <rdf:RDF>
   <cc:Work rdf:about="">
    <dc:format>image/svg+xml</dc:format>
    <dc:type rdf:resource="http://purl.org/dc/dcmitype/StillImage"/>
    <dc:title/>
   </cc:Work>
  </rdf:RDF>
 </metadata>
 <g id="layer11" transform="translate(0,500)" fill="none">
  <g stroke-width="15">
   <path id="path14850" d="m673.4-39.808 86.602 50 100-0.00003m50 86.603-86.603 86.603-100 173.21-600 0.00001" stroke="#080"/>
   <path id="path14761" d="m784.56-470.48 0.0001 341.96s0 4.0186 1.0222 7.7646 2.997 7.2354 2.997 7.2354l121.42 210.32v136.6l-100 173.21h-150l-245 424.35" stroke="#f80"/>
   <path id="path14862" d="m736.8 133.4 173.2 100 93.301-61.603 175-303.11 0.0001-210" stroke="#00f"/>
  </g>
  <path id="path14902" d="m856.75 12.067 50 86.603" stroke="#080" stroke-width="7.5"/>
  <g stroke="#f00">
   <path id="path15033" d="m821.6 899.9-0.0001-70s0.11389-12.426 8.7868-21.213c8.6729-8.7868 21.213-8.7868 21.213-8.7868l52.68 0.0001s8.6602 0 15-4.0192 10.981-10.981 10.981-10.981l41.339-71.602 0.0001-100-25-43.301-0.0002-200-303.11-175h-200l-129.9-75v-150l-50-86.602h-100" stroke-width="15"/>
   <path id="path15035" d="m971.6 613.3 200 346.41 0.0002 200" stroke-width="15"/>
   <path id="path15037" d="m821.6 899.9v20s-0.11389 12.426-8.7868 21.213c-8.6729 8.7867-21.213 8.7867-21.213 8.7867h-170" stroke-width="8"/>
  </g>
  <g stroke="#080" stroke-width="15">
   <path id="path15123" d="m523.4 356.6-41.339-71.602s-4.6409-6.9615-10.981-10.981c-6.3398-4.0192-15-4.0192-15-4.0192h-382.68"/>
   <path id="path15125" d="m23.398 443.2h332.68s8.6602 0 15-4.0192 10.981-10.981 10.981-10.981l32.679-56.602s4.6409-6.9615 10.981-10.981c6.3398-4.0192 15-4.0192 15-4.0192h32.68"/>
   <path id="path15127" d="m623.4 356.6-150 259.81"/>
  </g>
 </g>
 <g id="layer13" transform="translate(0,500)">
  <g stroke-linejoin="round" fill="none">
   <g stroke="#fff" stroke-width="15">
    <circle id="circle15213" cy="233.4" cx="910" r="10"/>
    <circle id="circle15215" cx="860" cy="320" r="10"/>
    <circle id="circle15217" cy="270" cx="773.4" r="10"/>
    <circle id="circle15219" cx="823.4" cy="183.4" r="10"/>
    <circle id="circle15221" cx="910" cy="96.795" r="10"/>
    <circle id="circle15223" cy="10.192" cx="860" r="10"/>
   </g>
   <g stroke="#000" stroke-width="10">
    <circle id="path14773" cx="910" cy="233.4" r="10"/>
    <circle id="circle14775" cy="320" cx="860" r="10"/>
    <circle id="circle14777" cx="773.4" cy="270" r="10"/>
    <circle id="circle14779" cy="183.4" cx="823.4" r="10"/>
    <circle id="circle14810" cy="96.795" cx="910" r="10"/>
   </g>
  </g>
  <g stroke-linejoin="round" fill-rule="evenodd" stroke="#000" stroke-width="5" fill="#fff">
   <circle id="circle14814" cy="-77.178" cx="809.56" r="10"/>
   <circle id="circle14816" cx="784.56" cy="-170.48" r="10"/>
   <circle id="circle14818" cy="-395.48" cx="784.56" r="10"/>
   <circle id="circle14820" cx="784.56" cy="-320.48" r="10"/>
   <circle id="circle14840" cx="784.56" cy="-470.48" r="10"/>
   <circle id="circle14848" cy="-39.808" cx="673.4" r="10"/>
   <circle id="circle14854" cy="133.4" cx="736.79" r="10"/>
   <circle id="circle14860" cx="1003.3" cy="171.79" r="10"/>
   <circle id="circle14878" cy="111.17" cx="1038.3" r="10"/>
   <circle id="circle14880" cx="1073.3" cy="50.551" r="10"/>
   <circle id="circle14882" cy="-10.07" cx="1108.3" r="10"/>
   <circle id="circle14884" cx="1143.3" cy="-70.692" r="10"/>
   <circle id="circle14886" cy="-201.31" cx="1178.3" r="10"/>
   <circle id="circle14888" cx="1178.3" cy="-271.31" r="10"/>
   <circle id="circle14890" cy="-341.31" cx="1178.3" r="10"/>
   <circle id="circle14846" cx="760" cy="10.192" r="10"/>
  </g>
  <circle id="circle14812" stroke-linejoin="round" cx="860" stroke="#000" cy="10.192" r="10" stroke-width="10" fill="none"/>
  <g stroke-linejoin="round" fill-rule="evenodd" stroke="#000" stroke-width="5" fill="#fff">
   <circle id="circle14911" cx="1178.3" cy="-131.31" r="10"/>
   <circle id="circle14927" cx="643.49" cy="195" r="10"/>
   <circle id="circle14929" cy="195" cx="543.49" r="10"/>
   <circle id="circle14931" cx="443.49" cy="195" r="10"/>
   <circle id="circle14933" cy="120" cx="313.59" r="10"/>
   <circle id="circle14935" cx="313.59" cy="-30" r="10"/>
   <circle id="circle14937" cy="-116.6" cx="263.59" r="10"/>
   <circle id="circle14939" cx="163.59" cy="-116.6" r="10"/>
   <circle id="circle14957" cy="356.6" cx="723.4" r="10"/>
   <circle id="circle14959" cx="835" cy="363.3" r="10"/>
   <circle id="circle14961" cy="406.6" cx="810" r="10"/>
   <circle id="circle14963" cx="673.4" cy="356.6" r="10"/>
   <circle id="circle14965" cy="356.6" cx="623.4" r="10"/>
   <circle id="circle14967" cx="660" cy="406.6" r="10"/>
   <circle id="circle14969" cx="946.6" cy="370" r="10"/>
   <circle id="circle14973" cy="470" cx="946.6" r="10"/>
   <circle id="circle14977" cx="946.6" cy="570" r="10"/>
   <circle id="circle14993" cy="613.3" cx="971.6" r="10"/>
   <circle id="circle14995" cx="971.6" cy="713.3" r="10"/>
   <circle id="circle14997" cy="786.51" cx="1071.6" r="10"/>
   <circle id="circle15001" cx="1121.6" cy="873.11" r="10"/>
   <circle id="circle15005" cx="1171.6" cy="959.71" r="10"/>
   <circle id="circle15009" cy="1059.7" cx="1171.6" r="10"/>
   <circle id="circle15013" cx="1171.6" cy="1159.7" r="10"/>
   <circle id="circle15019" cy="799.9" cx="871.6" r="10"/>
   <circle id="circle15021" cx="821.6" cy="849.9" r="10"/>
   <circle id="circle15023" cy="899.9" cx="821.6" r="10"/>
   <circle id="circle15031" cx="621.6" cy="949.9" r="10"/>
   <circle id="circle15045" cy="467.22" cx="625" r="10"/>
   <circle id="circle15047" cx="590" cy="527.85" r="10"/>
   <circle id="circle15049" cy="588.47" cx="555" r="10"/>
   <circle id="circle15051" cx="520" cy="649.09" r="10"/>
   <circle id="circle15053" cy="709.71" cx="485" r="10"/>
   <circle id="circle15109" cy="270" cx="73.398" r="10"/>
   <circle id="circle15111" cx="123.4" cy="356.6" r="10"/>
   <circle id="circle15113" cy="443.2" cx="23.398" r="10"/>
   <circle id="circle15115" cx="473.4" cy="616.41" r="10"/>
   <circle id="circle15121" cy="356.6" cx="523.4" r="10"/>
  </g>
  <g fill-rule="evenodd">
   <path id="path15131" d="m865 311.35-9.9902 17.305a10 10 0 0 0 4.9941 1.3477 10 10 0 0 0 10 -10 10 10 0 0 0 -5.0039 -8.6524z" fill="#f80"/>
   <path id="path15133" d="m860 310a10 10 0 0 0 -10 10 10 10 0 0 0 5.0059 8.6523l9.9902-17.305a10 10 0 0 0 -4.9961 -1.3476z" fill="#f00"/>
   <path id="path15135" d="m828.39 174.75-9.9902 17.305a10 10 0 0 0 4.9941 1.3477 10 10 0 0 0 10 -10 10 10 0 0 0 -5.0039 -8.6524z" fill="#080"/>
   <path id="path15137" d="m823.4 173.4a10 10 0 0 0 -10 10 10 10 0 0 0 5.0059 8.6523l9.9902-17.305a10 10 0 0 0 -4.9961 -1.3476z" fill="#00f"/>
   <path id="path15139" d="m778.39 261.35-9.9902 17.305a10 10 0 0 0 4.9941 1.3477 10 10 0 0 0 10 -10 10 10 0 0 0 -5.0039 -8.6524z" fill="#080"/>
   <path id="path15141" d="m773.4 260a10 10 0 0 0 -10 10 10 10 0 0 0 5.0059 8.6523l9.9902-17.305a10 10 0 0 0 -4.9961 -1.3476z" fill="#f00"/>
   <path id="circle14781" d="m915 224.74-9.9902 17.305a10 10 0 0 0 4.9941 1.3477 10 10 0 0 0 10 -10 10 10 0 0 0 -5.0039 -8.6524z" fill="#f80"/>
   <path id="path14790" d="m910 223.4a10 10 0 0 0 -10 10 10 10 0 0 0 5.0059 8.6523l9.9902-17.305a10 10 0 0 0 -4.9961 -1.3476z" fill="#00f"/>
   <path id="path14806" d="m905 88.143 9.9902 17.305a10 10 0 0 1 -4.9941 1.3477 10 10 0 0 1 -10 -10 10 10 0 0 1 5.0039 -8.6524z" fill="#080"/>
   <path id="path14808" d="m910 86.795a10 10 0 0 1 10 10 10 10 0 0 1 -5.0059 8.6523l-9.99-17.307a10 10 0 0 1 4.9961 -1.3476z" fill="#f80"/>
   <path id="path14905" d="m855 1.54 9.9902 17.305a10 10 0 0 1 -4.9941 1.3477 10 10 0 0 1 -10 -10 10 10 0 0 1 5.0039 -8.6524z" fill="#080"/>
   <path id="path14907" d="m860 0.19236a10 10 0 0 1 10 10 10 10 0 0 1 -5.0059 8.6523l-9.99-17.304a10 10 0 0 1 4.9961 -1.3476z" fill="#f80"/>
  </g>
  <g stroke-linejoin="round" fill-rule="evenodd" stroke="#000" stroke-width="5" fill="#fff">
   <circle id="circle15519" cy="770.33" cx="450" r="10"/>
   <circle id="circle15521" cx="415" cy="830.95" r="10"/>
   <circle id="circle17090" cy="-245.48" cx="784.56" r="10"/>
   <circle id="circle17096" cx="573.4" cy="356.6" r="10"/>
  </g>
 </g>
 <g id="layer14">
  <g font-family="Bitstream Vera Sans" fill="#000000">
   <g font-size="25px">
    <text id="text15225" style="word-spacing:0px;letter-spacing:-1px" xml:space="preserve" transform="translate(0,500)" line-height="89.99999762%" y="-460" x="810"><tspan id="tspan15227" font-size="25px" y="-460" x="810" font-weight="bold">OAK GROVE</tspan></text>
    <text id="text15236" style="word-spacing:0px;letter-spacing:-1px" xml:space="preserve" line-height="89.99999762%" y="110" x="810"><tspan id="tspan15238" x="810" y="110">Malden</tspan><tspan id="tspan15392" x="810" y="132.5">Center</tspan></text>
    <text id="text15240" style="word-spacing:0px;letter-spacing:-1px" xml:space="preserve" line-height="89.99999762%" y="190" x="810"><tspan id="tspan15242" x="810" y="190">Wellington</tspan></text>
    <text id="text15244" style="word-spacing:0px;letter-spacing:-1px" xml:space="preserve" line-height="89.99999762%" y="340" x="810"><tspan id="tspan15246" x="810" y="340">Sullivan</tspan><tspan id="tspan15260" x="810" y="362.5">Square</tspan></text>
    <text id="text15248" style="word-spacing:0px;letter-spacing:-1px" xml:space="preserve" line-height="89.99999762%" y="420" x="830"><tspan id="tspan15250" x="830" y="420">Community</tspan><tspan id="tspan15262" x="830" y="442.5">College</tspan></text>
    <text id="text15252" style="word-spacing:0px;letter-spacing:-1px" xml:space="preserve" line-height="89.99999762%" y="500" x="880"><tspan id="tspan15254" x="880" y="500">North</tspan><tspan id="tspan15264" x="880" y="522.5">Station</tspan></text>
   </g>
   <text id="text15256" style="word-spacing:0px;letter-spacing:-1px" xml:space="preserve" font-size="22.5px" line-height="89.99999762%" y="578" x="908"><tspan id="tspan15258" font-size="25px" y="578" x="908">Haymarket</tspan></text>
   <g font-size="25px">
    <g>
     <text id="text15266" style="word-spacing:0px;letter-spacing:-1px;text-anchor:end;text-align:end" xml:space="preserve" line-height="89.99999762%" y="170" x="1161"><tspan id="tspan15268" y="170" x="1160" font-weight="bold">WONDERLAND</tspan></text>
     <text id="text15270" style="word-spacing:0px;letter-spacing:-1px;text-anchor:end;text-align:end" xml:space="preserve" line-height="89.99999762%" y="240" x="1161"><tspan id="tspan15272" x="1160" y="240">Revere Beach</tspan></text>
     <text id="text15274" style="word-spacing:0px;letter-spacing:-1px;text-anchor:end;text-align:end" xml:space="preserve" line-height="89.99999762%" y="310" x="1161"><tspan id="tspan15276" x="1160" y="310">Beachmont</tspan></text>
     <text id="text15278" style="word-spacing:0px;letter-spacing:-1px;text-anchor:end;text-align:end" xml:space="preserve" line-height="89.99999762%" y="370" x="1161"><tspan id="tspan15280" x="1160" y="370">Suffolk Downs</tspan></text>
     <text id="text15282" style="word-spacing:0px;letter-spacing:-1px;text-anchor:end;text-align:end" xml:space="preserve" line-height="89.99999762%" y="416" x="1131"><tspan id="tspan15284" x="1130" y="416">Orient</tspan><tspan id="tspan15386" x="1136.959" y="438.5">Heights  </tspan></text>
     <text id="text15286" style="word-spacing:0px;letter-spacing:-1px" xml:space="preserve" line-height="89.99999762%" y="500" x="1110"><tspan id="tspan15288" x="1110" y="500">  Wood</tspan><tspan id="tspan15388" x="1110" y="522.5">Island</tspan></text>
     <text id="text15290" style="word-spacing:0px;letter-spacing:-1px" xml:space="preserve" line-height="89.99999762%" y="560" x="1090"><tspan id="tspan15292" x="1090" y="560">Airport</tspan></text>
     <text id="text15294" style="word-spacing:0px;letter-spacing:-1px" xml:space="preserve" line-height="89.99999762%" y="620" x="1060"><tspan id="tspan15296" x="1060" y="620">Maverick</tspan></text>
     <text id="text15298" style="word-spacing:0px;letter-spacing:-1px" xml:space="preserve" line-height="89.99999762%" y="680" x="1020"><tspan id="tspan15300" x="1020" y="680">Aquarium</tspan></text>
     <text id="text15302" style="word-spacing:0px;letter-spacing:-1px" xml:space="preserve" line-height="89.99999762%" y="770" x="920"><tspan id="tspan15304" x="920" y="770">State</tspan></text>
     <text id="text15306" style="word-spacing:0px;letter-spacing:-1px" xml:space="preserve" line-height="89.99999762%" y="820" x="880"><tspan id="tspan15308" x="880" y="820">Downtown Crossing</tspan></text>
     <text id="text15310" style="word-spacing:0px;letter-spacing:-1px" xml:space="preserve" line-height="89.99999762%" y="880" x="964"><tspan id="tspan15312" x="964" y="880">South Station</tspan></text>
     <text id="text15314" style="word-spacing:0px;letter-spacing:-1px" xml:space="preserve" line-height="89.99999762%" y="980" x="964"><tspan id="tspan15316" x="964" y="980">Broadway</tspan></text>
     <text id="text15318" style="word-spacing:0px;letter-spacing:-1px" xml:space="preserve" line-height="89.99999762%" y="1070" x="964"><tspan id="tspan15320" x="964" y="1070">Andrew</tspan></text>
     <text id="text15322" style="word-spacing:0px;letter-spacing:-1px" xml:space="preserve" line-height="89.99999762%" y="1120" x="990"><tspan id="tspan15324" x="990" y="1120">JFK/UMass</tspan></text>
     <text id="text15326" style="word-spacing:0px;letter-spacing:-1px;text-anchor:end;text-align:end" xml:space="preserve" line-height="89.99999762%" y="1220" x="951"><tspan id="tspan15328" x="950" y="1220">Savin Hill</tspan></text>
     <text id="text15330" style="word-spacing:0px;letter-spacing:-1px" xml:space="preserve" line-height="89.99999762%" y="1270" x="1080"><tspan id="tspan15332" x="1080" y="1270">North</tspan><tspan id="tspan15390" x="1080" y="1292.5">  Quincy</tspan></text>
     <text id="text15334" style="word-spacing:0px;letter-spacing:-1px;text-anchor:end;text-align:end" xml:space="preserve" line-height="89.99999762%" y="1390" x="1101"><tspan id="tspan15336" x="1100" y="1390">Wollaston</tspan></text>
     <text id="text15338" style="word-spacing:0px;letter-spacing:-1px;text-anchor:end;text-align:end" xml:space="preserve" line-height="89.99999762%" y="1470" x="1151"><tspan id="tspan15340" x="1150" y="1470">Quincy Center</tspan></text>
     <text id="text15342" style="word-spacing:0px;letter-spacing:-1px;text-anchor:end;text-align:end" xml:space="preserve" line-height="89.99999762%" y="1570" x="1151"><tspan id="tspan15344" x="1150" y="1570">Quincy Adams</tspan></text>
     <text id="text15346" style="word-spacing:0px;letter-spacing:-1px;text-anchor:end;text-align:end" xml:space="preserve" line-height="89.99999762%" y="1670" x="1151"><tspan id="tspan15348" y="1670" x="1150" font-weight="bold">BRAINTREE</tspan></text>
     <text id="text15350" style="word-spacing:0px;letter-spacing:-1px;text-anchor:middle;text-align:center" xml:space="preserve" line-height="89.99999762%" y="1340" x="900.5"><tspan id="tspan15352" x="900" y="1340">Fields</tspan><tspan id="tspan15394" x="900" y="1362.5">Corner</tspan></text>
     <text id="text15354" style="word-spacing:0px;letter-spacing:-1px;text-anchor:end;text-align:end" xml:space="preserve" line-height="89.99999762%" y="1360" x="801"><tspan id="tspan15356" x="800" y="1360">Shawmut</tspan></text>
     <text id="text15358" style="word-spacing:0px;letter-spacing:-1px;text-anchor:end;text-align:end" xml:space="preserve" line-height="89.99999762%" y="1410" x="801"><tspan id="tspan15360" y="1410" x="800" font-weight="bold">ASHMONT</tspan></text>
     <text id="text15362" style="word-spacing:0px;letter-spacing:-1px;text-anchor:middle;text-align:center" xml:space="preserve" line-height="89.99999762%" y="1484.5" x="622.5"><tspan id="tspan15364" y="1484.5" x="622" font-weight="bold">MATTAPAN</tspan></text>
    </g>
    <text id="text15366" style="word-spacing:0px;letter-spacing:-1px;text-anchor:middle;text-align:center" font-weight="bold" xml:space="preserve" line-height="89.99999762%" y="610" x="730.5"><tspan id="tspan15368" x="730" y="610">BOWDOIN</tspan></text>
    <text id="text15370" style="word-spacing:0px;letter-spacing:-1px;text-anchor:middle;text-align:center" font-weight="bold" xml:space="preserve" line-height="89.99999762%" y="440" x="670.5"><tspan id="tspan15372" x="670" y="440">LECHMERE</tspan></text>
    <text id="text15374" style="word-spacing:0px;letter-spacing:-1px;text-anchor:middle;text-align:center" xml:space="preserve" line-height="89.99999762%" y="540" x="677.02051"><tspan id="tspan15376" x="680" y="540">Science Park / </tspan><tspan id="tspan15398" x="676.52051" y="562.5">West End</tspan></text>
   </g>
   <text id="text15378" style="word-spacing:0px;letter-spacing:-1px;text-anchor:end;text-align:end" xml:space="preserve" font-size="25px" line-height="89.99999762%" y="692" x="797"><tspan id="tspan15380" y="692" x="796">Govt</tspan><tspan id="tspan15396" y="712.25" x="796">Center</tspan></text>
   <g font-size="25px">
    <text id="text15382" style="word-spacing:0px;letter-spacing:-1px;text-anchor:end;text-align:end" xml:space="preserve" line-height="89.99999762%" y="770" x="871"><tspan id="tspan15384" x="870" y="770">Park St</tspan></text>
    <g font-weight="bold">
     <text id="text15400" style="word-spacing:0px;letter-spacing:-1px;text-anchor:middle;text-align:center" line-height="89.99999762%" y="360" x="150.5" xml:space="preserve"><tspan id="tspan15402" y="360" x="150">ALEWIFE</tspan></text>
     <text id="text15404" style="word-spacing:0px;letter-spacing:-1px" xml:space="preserve" line-height="89.99999762%" y="750" x="40"><tspan id="tspan15406" x="40" y="750"><tspan id="tspan15408" fill="#004400" font-size="35px">B</tspan> Boston College</tspan></text>
     <text id="text15410" style="word-spacing:0px;letter-spacing:-1px" line-height="89.99999762%" y="840" x="90" xml:space="preserve"><tspan id="tspan15412" y="840" x="90"><tspan id="tspan15426" fill="#004400" font-size="35px">C</tspan> Cleveland Circle</tspan></text>
     <text id="text15416" style="word-spacing:0px;letter-spacing:-1px" xml:space="preserve" line-height="89.99999762%" y="990" x="10"><tspan id="tspan15418" x="10" y="990"><tspan id="tspan15422" fill="#004400" font-size="35px">D</tspan> Riverside</tspan></text>
    </g>
   </g>
  </g>
  <text id="text15443" style="word-spacing:0px;letter-spacing:-1px;text-anchor:end;text-align:end" font-weight="bold" font-size="25px" line-height="89.99999762%" y="1150" x="471" font-family="Bitstream Vera Sans" xml:space="preserve" fill="#004400"><tspan id="tspan15445" y="1150" x="470"><tspan id="tspan15447" style="text-anchor:end;text-align:end" fill="#004400" font-size="35px">E</tspan><tspan id="tspan15544" fill="#000000"> Heath St</tspan></tspan></text>
  <g font-size="25px" font-family="Bitstream Vera Sans" fill="#000000">
   <g>
    <text id="text15465" style="word-spacing:0px;letter-spacing:-1px" line-height="89.99999762%" y="370" x="280" xml:space="preserve"><tspan id="tspan15467" y="370" x="280">Davis</tspan></text>
    <text id="text15469" style="word-spacing:0px;letter-spacing:-1px" xml:space="preserve" line-height="89.99999762%" y="470" x="330"><tspan id="tspan15471" x="330" y="470">Porter</tspan></text>
    <text id="text15473" style="word-spacing:0px;letter-spacing:-1px" line-height="89.99999762%" y="610" x="330" xml:space="preserve"><tspan id="tspan15475" y="610" x="330">Harvard</tspan></text>
   </g>
   <text id="text15483" style="word-spacing:0px;letter-spacing:-1px;text-anchor:middle;text-align:center" font-weight="bold" line-height="89.99999762%" y="1370" x="410.5" xml:space="preserve"><tspan id="tspan15485" y="1370" x="410">FOREST HILLS</tspan></text>
   <g>
    <text id="text15487" style="word-spacing:0px;letter-spacing:-1px;text-anchor:end;text-align:end" line-height="89.99999762%" y="1030" x="901" xml:space="preserve"><tspan id="tspan15489" y="1030" x="900">Chinatown</tspan></text>
    <text id="text15491" style="word-spacing:0px;letter-spacing:-1px;text-anchor:middle;text-align:center" xml:space="preserve" line-height="89.99999762%" y="940" x="810.5"><tspan id="tspan15493" x="810" y="940">Tufts</tspan><tspan id="tspan15525" x="810" y="962.5">Medical</tspan></text>
    <text id="text15495" style="word-spacing:0px;letter-spacing:-1px" line-height="89.99999762%" y="936" x="656" xml:space="preserve"><tspan id="tspan15497" y="936" x="656">  Back</tspan><tspan id="tspan15527" y="958.5" x="656">Bay</tspan></text>
    <text id="text15499" style="word-spacing:0px;letter-spacing:-1px" xml:space="preserve" line-height="89.99999762%" y="1000" x="636"><tspan id="tspan15501" x="636" y="1000">Mass Ave</tspan></text>
    <text id="text15503" style="word-spacing:0px;letter-spacing:-1px" line-height="89.99999762%" y="1050" x="606" xml:space="preserve"><tspan id="tspan15505" y="1050" x="606">Ruggles</tspan></text>
    <text id="text15507" style="word-spacing:0px;letter-spacing:-1px" xml:space="preserve" line-height="89.99999762%" y="1110" x="570"><tspan id="tspan15509" x="570" y="1110">Roxbury Crossing</tspan></text>
    <text id="text15511" style="word-spacing:0px;letter-spacing:-1px" line-height="89.99999762%" y="1170" x="536" xml:space="preserve"><tspan id="tspan15513" y="1170" x="536">Jackson Square</tspan></text>
    <text id="text15546" style="word-spacing:0px;letter-spacing:-1px" xml:space="preserve" line-height="89.99999762%" y="1230" x="500"><tspan id="tspan15548" x="500" y="1230">Stony Brook</tspan></text>
    <text id="text15550" style="word-spacing:0px;letter-spacing:-1px" line-height="89.99999762%" y="1290" x="466" xml:space="preserve"><tspan id="tspan15552" y="1290" x="466">Green St</tspan></text>
    <text id="text15554" style="word-spacing:0px;letter-spacing:-1px;text-anchor:middle;text-align:center" line-height="89.99999762%" y="806" x="556.5" xml:space="preserve"><tspan id="tspan15558" y="806" x="556">Kenmore</tspan></text>
    <text id="text15562" style="word-spacing:0px;letter-spacing:-1px;text-anchor:end;text-align:end" xml:space="preserve" line-height="89.99999762%" y="730" x="441"><tspan id="tspan15564" x="440" y="730">Central</tspan></text>
    <text id="text15566" style="word-spacing:0px;letter-spacing:-1px;text-anchor:middle;text-align:center" line-height="89.99999762%" y="650" x="540.5" xml:space="preserve"><tspan id="tspan15568" y="650" x="540">Kendall/</tspan><tspan id="tspan15574" y="672.5" x="540">MIT</tspan></text>
    <text id="text15570" style="word-spacing:0px;letter-spacing:-1px;text-anchor:end;text-align:end" xml:space="preserve" line-height="89.99999762%" y="730" x="651.22314"><tspan id="tspan15572" x="650.22314" y="730">Charles/</tspan><tspan id="tspan15576" x="650.22314" y="752.5">MGH</tspan></text>
    <text id="text15578" style="word-spacing:0px;letter-spacing:-1px;text-anchor:middle;text-align:center" line-height="89.99999762%" y="836" x="620.5" xml:space="preserve"><tspan id="tspan15580" y="836" x="620">Copley</tspan></text>
    <text id="text15582" style="word-spacing:0px;letter-spacing:-1px;text-anchor:end;text-align:end" xml:space="preserve" line-height="89.99999762%" y="806" x="741"><tspan id="tspan15584" x="740" y="806">Boylston</tspan></text>
    <text id="text15586" style="word-spacing:0px;letter-spacing:-1px" line-height="89.99999762%" y="890" x="680" xml:space="preserve"><tspan id="tspan15588" y="890" x="680">Arlington</tspan></text>
   </g>
  </g>
  <path id="path15590" d="m680 880h-20l13.398-23.398" stroke="#000" stroke-width="1px" fill="none"/>
  <path id="path15592" d="m910 1020h10v-110l-85-46.699" stroke="#000" stroke-width="1px" fill="none"/>
  <text id="text17092" style="word-spacing:0px;letter-spacing:-1px" font-size="25px" line-height="89.99999762%" y="266" x="810" font-family="Bitstream Vera Sans" xml:space="preserve" fill="#000000"><tspan id="tspan17094" y="266" x="810">Assembly</tspan></text>
  <text id="text17098" style="word-spacing:0px;letter-spacing:-1px;text-anchor:middle;text-align:center" xml:space="preserve" font-size="25px" line-height="89.99999762%" y="906" x="490.5" font-family="Bitstream Vera Sans" fill="#000000"><tspan id="tspan17100" x="490" y="906">Hynes</tspan><tspan id="tspan17102" x="490" y="928.5">Convention</tspan><tspan id="tspan17108" x="490" y="951">Center</tspan></text>
  <g stroke="#000" stroke-width="1px" fill="none">
   <path id="path17104" d="m573.4 856.6-23.4 43.4h-20"/>
   <path id="path17106" d="m550 810v20l-26.602 26.602"/>
   <path id="path17110" d="m700 810v20l23.398 26.602"/>
   <path id="path17112" d="m623.4 856.6v-16.602"/>
  </g>
 </g>
</svg>
