<?xml version="1.0" encoding="iso-8859-1"?>
<!-- Uploaded to: SVG Repo, www.svgrepo.com, Generator: SVG Repo Mixer Tools -->
<!DOCTYPE svg PUBLIC "-//W3C//DTD SVG 1.1//EN" "http://www.w3.org/Graphics/SVG/1.1/DTD/svg11.dtd">
<svg fill="#000000" version="1.1" id="Capa_1" xmlns="http://www.w3.org/2000/svg" xmlns:xlink="http://www.w3.org/1999/xlink" 
	 width="800px" height="800px" viewBox="0 0 918.3 918.3" xml:space="preserve"
	>
<g>
	<g>
		<path d="M687.8,244.7c-33.9-14.4-63.801-21.4-91.6-21.4c-11.701,0-22.201,1.2-32.1,3.1c16-6.5,34.299-12.7,55.299-17.9
			c23.201-5.8,45.301-16.3,65.5-31.4c16.6-12.3,32.201-27.8,46.301-45.9c24.6-31.7,39.1-64.3,45.6-80.9c3.6-9.2,2.9-19.3-1.9-27.7
			c-4.799-8.4-13.1-14.2-22.799-15.9C737.5,4.2,707.8,0,673.5,0c-54.398,0-99.1,10.3-132.898,30.6c-21.4,12.7-38.4,40.1-52.301,83.8
			c-3.1,9.7-6,20.2-8.801,31.5c-0.398-5.7-0.898-11.1-1.299-16.2c-3.4-40.1-6.4-58.4-9.1-68.4c-0.801-3.1-1.602-5.5-2.4-7.3
			C457,30.2,437,15.9,413.2,15.9c-12.9,0-25.7,4.2-36.1,11.8c-12.4,9.1-19.5,22-19.5,35.3c0,24.8,14.899,37.7,24.699,46.3
			c3,2.6,5.7,4.9,7.801,7.3c3.199,8.3,11.199,43.3,23.699,128c-9.3-2.2-18.399-4.9-27.899-7.7c-24.2-7.1-49.3-14.4-78.9-14.4
			c-24.899,0-49.8,5.2-76.2,15.9c-48.3,19.8-88.6,57.3-116.4,108.7c-22.9,42.4-36.1,92.7-36.1,138.2c0,29.9,7.2,67.5,20.9,108.7
			c13.8,41.5,33.4,84.601,56.7,124.8c25.9,44.601,55,83.601,86.6,115.801c36.101,36.899,74.2,63.399,113,78.8
			c8.2,3.3,17.2,4.899,26.8,4.899c17.2,0,33.801-5.199,48.5-9.8c10.5-3.3,21.301-6.7,28.4-6.7c3,0,6.299,0.4,10,1
			c7.5,1.2,16.199,3.5,24.699,5.7c15,3.9,30.5,7.9,44.701,7.9c6,0,11.398-0.7,16.5-2.101c42.5-12,83.299-36.399,121.199-72.5
			c32.699-31.1,62.5-70,88.5-115.6C810.5,646.2,840,551.7,840,485.4c0-50.2-9.799-94.4-29.199-131.5
			C785.601,305.4,744.201,268.7,687.8,244.7z M670.101,814c-1.102,1.2-2.301,2.3-3.4,3.5c-0.6,0.601-1.201,1.2-1.801,1.7
			c-1.4,1.4-2.799,2.8-4.199,4.1c-0.5,0.5-1.1,1-1.6,1.601c-1.801,1.7-3.602,3.399-5.4,5c-8.301,7.6-17,14.7-25.801,21.2
			c-13.299,9.8-27.299,18.399-41.799,25.399c-1.201,0.601-2.4,1.2-3.602,1.7c-2.398,1.1-4.898,2.2-7.299,3.3
			c-8.6,3.7-17.4,6.8-26.4,9.4l0,0c-0.699,0.2-1.5,0.399-2.199,0.5c-0.301,0.1-0.5,0.1-0.801,0.1c-0.5,0.101-1,0.2-1.6,0.2
			c-0.301,0-0.6,0.1-1,0.1c-0.5,0-1,0.101-1.5,0.101c-0.301,0-0.701,0-1.1,0c-0.5,0-1,0-1.5,0s-0.9,0-1.4,0c-0.301,0-0.6,0-0.9,0
			c-0.6,0-1.1,0-1.699-0.101c-0.201,0-0.5,0-0.701,0c-0.799-0.1-1.6-0.1-2.5-0.199c-0.1,0-0.199,0-0.199,0
			c-0.801-0.101-1.5-0.2-2.301-0.301c-0.299,0-0.6-0.1-0.9-0.1c-0.6-0.1-1.1-0.2-1.699-0.3c-0.301-0.101-0.699-0.101-1-0.2
			c-0.5-0.1-1.1-0.2-1.699-0.3c-0.301-0.101-0.701-0.101-1-0.2c-0.602-0.1-1.102-0.2-1.701-0.3c-0.299-0.101-0.699-0.101-1-0.2
			c-0.6-0.1-1.199-0.3-1.799-0.4c-0.301-0.1-0.602-0.1-0.9-0.199c-0.801-0.2-1.701-0.4-2.5-0.601c-0.1,0-0.201,0-0.301-0.1
			c-0.9-0.2-1.9-0.4-2.799-0.7c-0.301-0.1-0.602-0.1-0.9-0.2c-0.6-0.2-1.301-0.3-1.9-0.5c-0.4-0.1-0.699-0.2-1.1-0.3
			c-0.6-0.1-1.201-0.3-1.801-0.4c-0.4-0.1-0.799-0.199-1.1-0.3c-0.6-0.2-1.199-0.3-1.801-0.5c-0.398-0.1-0.799-0.2-1.1-0.3
			c-0.699-0.2-1.4-0.4-2-0.5c-0.799-0.2-1.6-0.4-2.4-0.6c-0.398-0.101-0.699-0.2-1.1-0.301c-0.9-0.199-1.9-0.5-2.799-0.699
			c-0.201-0.101-0.5-0.101-0.701-0.2c-0.699-0.2-1.4-0.4-2.1-0.5c-0.301-0.101-0.699-0.2-1-0.3c-0.6-0.2-1.199-0.301-1.801-0.5
			c-0.398-0.101-0.699-0.2-1.1-0.301c-0.6-0.1-1.199-0.3-1.799-0.399c-0.4-0.101-0.801-0.2-1.102-0.3
			c-0.6-0.101-1.199-0.301-1.799-0.4c-0.4-0.1-0.701-0.2-1.1-0.2c-0.701-0.1-1.301-0.3-2-0.399C479.3,879.5,479,879.5,478.8,879.4
			c-0.9-0.2-1.801-0.4-2.801-0.5c-0.199,0-0.299-0.101-0.5-0.101c-0.699-0.1-1.5-0.3-2.199-0.399c-0.301-0.101-0.6-0.101-0.9-0.101
			c-0.6-0.1-1.199-0.199-1.699-0.3c-0.301,0-0.701-0.1-1-0.1c-0.1,0-0.201,0-0.301,0c-0.5-0.101-0.9-0.101-1.4-0.2
			c-0.398,0-0.699-0.1-1-0.1c-0.5-0.101-1.1-0.101-1.6-0.2c-0.299,0-0.699-0.101-1-0.101c-0.6,0-1.1-0.1-1.699-0.1
			c-0.301,0-0.6,0-0.801,0c-0.799,0-1.6-0.1-2.4-0.1l0,0l0,0c-0.799,0-1.599,0-2.399,0.1c-0.3,0-0.5,0-0.8,0.1
			c-0.601,0-1.101,0.101-1.7,0.101c-0.3,0-0.601,0.1-0.9,0.1c-0.6,0.101-1.1,0.101-1.7,0.2c-0.3,0-0.6,0.1-0.8,0.1
			c-0.7,0.101-1.399,0.2-2.1,0.301c-0.101,0-0.3,0-0.4,0.1c-0.8,0.2-1.7,0.3-2.6,0.5c-0.3,0.1-0.5,0.1-0.8,0.2
			c-0.601,0.1-1.2,0.3-1.801,0.399c-0.3,0.101-0.6,0.2-1,0.2c-0.6,0.101-1.199,0.3-1.8,0.4c-0.3,0.1-0.6,0.2-0.899,0.2
			c-0.7,0.199-1.301,0.399-2,0.5c-0.2,0.1-0.4,0.1-0.7,0.199c-0.9,0.2-1.8,0.5-2.7,0.801c-0.3,0.1-0.6,0.199-0.8,0.199
			c-0.601,0.2-1.3,0.4-1.9,0.601c-0.399,0.1-0.7,0.2-1.1,0.3c-0.601,0.2-1.101,0.4-1.7,0.5c-0.4,0.1-0.8,0.2-1.1,0.4
			c-0.601,0.199-1.2,0.399-1.801,0.6c-1.199,0.4-2.399,0.8-3.699,1.1H422.2c-0.899,0.301-1.8,0.601-2.6,0.801
			c-0.3,0.1-0.5,0.199-0.8,0.3c-0.7,0.2-1.4,0.399-2,0.6c-0.301,0.101-0.601,0.2-1,0.3c-0.7,0.2-1.4,0.4-2,0.601
			c-0.301,0.1-0.601,0.2-0.801,0.3c-1,0.3-1.899,0.6-2.899,0.8c0,0-0.101,0-0.2,0c-0.9,0.2-1.8,0.5-2.7,0.7
			c-0.3,0.1-0.6,0.2-0.899,0.2c-0.7,0.2-1.301,0.3-2,0.5c-0.301,0.1-0.7,0.2-1,0.2c-0.7,0.199-1.301,0.3-2,0.5
			c-0.301,0.1-0.601,0.1-0.9,0.199c-0.9,0.2-1.7,0.4-2.6,0.5c-0.101,0-0.2,0-0.301,0.101c-0.899,0.2-1.899,0.3-2.8,0.5
			c-0.3,0-0.5,0.1-0.8,0.1c-0.7,0.1-1.3,0.2-2,0.3c-0.3,0-0.7,0.101-1,0.101c-0.6,0.1-1.3,0.1-1.9,0.199
			c-0.3,0-0.6,0.101-0.899,0.101c-0.8,0.1-1.5,0.1-2.3,0.1c-0.2,0-0.4,0-0.5,0c-0.9,0-1.9,0.101-2.801,0c-0.199,0-0.399,0-0.6,0
			c-0.7,0-1.4,0-2.1-0.1c-0.301,0-0.601,0-0.9-0.101c-0.7,0-1.3-0.1-2-0.199c-0.2,0-0.5,0-0.7-0.101c-0.899-0.1-1.8-0.2-2.7-0.399
			c-0.1,0-0.3-0.101-0.399-0.101c-0.7-0.1-1.5-0.3-2.2-0.5c-0.3-0.1-0.5-0.1-0.8-0.2c-0.601-0.199-1.3-0.3-1.9-0.5
			c-0.3-0.1-0.5-0.199-0.8-0.199c-0.9-0.301-1.7-0.601-2.6-0.9l0,0c-8.301-3.3-16.4-7.1-24.4-11.4c-2.3-1.199-4.6-2.5-6.8-3.8
			c-2.3-1.3-4.5-2.6-6.8-4c-3.4-2.1-6.7-4.2-10-6.399c-2.2-1.5-4.4-3-6.601-4.601c-1.1-0.8-2.2-1.6-3.3-2.399
			c-2.2-1.601-4.3-3.2-6.5-4.9c-12.899-9.9-25.4-21-37.3-32.9c-2-2-4-4-5.9-6.1c-4.9-5.1-9.7-10.4-14.5-15.8
			c-4.7-5.4-9.4-10.9-13.9-16.5c-3.6-4.5-7.2-9.101-10.7-13.7c-1.8-2.3-3.5-4.7-5.2-7c-1.7-2.3-3.4-4.7-5.1-7.1
			c-0.8-1.2-1.7-2.4-2.5-3.601c-5-7.2-9.9-14.5-14.6-21.899c-1.6-2.5-3.1-4.9-4.6-7.4c-0.8-1.2-1.5-2.5-2.3-3.7
			c-2.3-3.7-4.5-7.5-6.7-11.2c-3.6-6.3-7.2-12.6-10.6-18.899c-4.8-8.9-11.2-27-11.6-27.7V438.5c0-4.7,3.8-8.5,8.5-8.5H177
			c5.5,0,7-4.5,7-10v-19.9c0-5.5,4.5-10,10-10h43c5.5,0,10,4.5,10,10V420c0,5.5,4.5,10,10,10h8.3c5.5,0,10,4.5,10,10v363.8
			c0,5.5,4.5,10,10,10h1.3c5.5,0,10-4.5,10-10v-43.1c0-5.5,4.5-10,10-10h43.8c5.5,0,10-4.5,10-10V591.8c0-2.3,1.3-5.399,2.9-7.1
			l31.1-29.2c3.9-3.899,8.3-3.899,12.2,0l31.7,28.9c1.6,1.6,2.899,4.8,2.899,7.1v197.3c0,9.5,11.9,13.601,17.8,6.2l10.601-13.399
			l13.6-17.101c2.9-3.7,7.6-3.7,10.6,0l35.6,44.8c5.9,7.4,14.801,3.301,14.801-6.199c0-78,0-288.101,0-288.101
			c0-4.7,3.799-8.5,8.5-8.5h5.799c5.5,0,13-4.5,13-10v-71.6c0-5.5,4.5-10,10-10h5.4c5.5,0,10-4.5,10-10v-80.5c0-5.5,4.5-10,10-10
			h1.801c5.5,0,10,4.5,10,10v80.5c0,5.5,4.5,10,10,10h5.4c5.5,0,10,4.5,10,10v71.6c0,5.5,4.5,10,10,10h6.5c5.5,0,10,4.5,10,10
			L670.101,814L670.101,814z M755.101,693.7c-0.201,0.4-0.4,0.8-0.602,1.2c-2.699,5.1-5.5,10.3-8.299,15.3
			c-2.1,3.8-4.301,7.6-6.6,11.4C737.8,724.7,735.9,727.8,734,730.8c-0.699,1.101-1.398,2.2-2,3.301c-1.199,2-2.398,3.899-3.699,5.8
			c-0.9,1.3-1.699,2.6-2.6,4c-1.1,1.7-2.201,3.3-3.301,5c-1,1.399-2,2.899-2.9,4.3c-1,1.5-2.1,3-3.1,4.6c-1,1.5-2.1,3-3.199,4.4
			c-1,1.4-2,2.9-3.1,4.3c-1.102,1.5-2.201,3-3.4,4.5c-1,1.4-2,2.7-3.1,4.101c-1.201,1.5-2.301,3-3.5,4.5
			c-1,1.3-2.102,2.6-3.102,3.899c-1.199,1.5-2.398,2.9-3.6,4.4c-0.699,0.899-1.5,1.8-2.199,2.7v-330c0-5.5,4.5-10,10-10H745
			c5.5,0,10,4.5,10,10L755.101,693.7L755.101,693.7z"/>
	</g>
</g>
</svg>